<svg xmlns="http://www.w3.org/2000/svg" viewBox="0 0 1000 1500">
  <path d="M0 0 L1000 0 L1000 1500 L0 1500 Z" fill="none" />
  <path d="M0 0 C0 0 320 0 320 0 C320 0 320 1500 320 1500 C320 1500 0 1500 0 1500 C0 1500 0 0 0 0 Z" fill="black" />
  <path d="M680 0 C680 0 1000 0 1000 0 C1000 0 1000 1500 1000 1500 C1000 1500 680 1500 680 1500 C680 1500 680 0 680 0 Z" fill="black" />
  <path d="M320 0 C320 0 680 0 680 0 C680 0 680 600 680 600 C680 600 500 600 500 600 C500 600 500 900 500 900 C500 900 680 900 680 900 C680 900 680 1500 680 1500 C680 1500 320 1500 320 1500 C320 1500 320 0 320 0 Z" fill="black" />
</svg> 